<svg width="320" height="756" viewBox="0 0 320 756" fill="none" xmlns="http://www.w3.org/2000/svg">
<path fill-rule="evenodd" clip-rule="evenodd" d="M320 63.8891L335.987 64.7698L339.057 9.04782C332.52 8.85224 325.551 8.42071 318.835 7.74764C314.626 7.32671 309.572 6.54871 303.687 5.6426C283.419 2.52254 253.285 -2.1165 213.787 1.07302C194.571 2.62538 176.795 5.65998 160.256 8.87967C158.255 9.26932 156.172 9.68135 154.009 10.1093C131.962 14.47 101.574 20.4808 64.2271 21.2861C23.7447 22.1561 -8.48003 16.3134 -36.4263 11.2465C-63.0466 6.41996 -85.7848 2.29729 -108.08 5.35084L-110 40.2008L0 46.2606V1206.89H320V63.8891Z" fill="#F0F5E1"/>
</svg>
