<svg width="1280" height="978" viewBox="0 0 1280 978" fill="none" xmlns="http://www.w3.org/2000/svg" preserveAspectRatio="none">
<path fill-rule="evenodd" clip-rule="evenodd" d="M1280 255.556L1343.95 259.079L1356.23 36.1913C1330.08 35.409 1302.21 33.6829 1275.34 30.9906C1258.5 29.3069 1238.29 26.1949 1214.75 22.5704C1133.68 10.0902 1013.14 -8.46601 855.15 4.29208C778.285 10.5015 707.18 22.6399 641.026 35.5187C633.02 37.0773 624.688 38.7254 616.034 40.4371C527.849 57.8799 406.294 81.9232 256.908 85.1442C94.9788 88.6244 -33.9201 65.2537 -145.705 44.986C-252.186 25.6798 -343.139 9.18916 -432.321 21.4034L-440 160.803L0 185.043V982.762H1280V255.556Z" fill="#F0F5E1"/>
</svg>
